<svg width="17" height="12" viewBox="0 0 17 12" fill="none" xmlns="http://www.w3.org/2000/svg">
<path d="M16.0111 6.53033C16.304 6.23744 16.304 5.76256 16.0111 5.46967L11.2381 0.6967C10.9452 0.403807 10.4703 0.403807 10.1775 0.6967C9.88456 0.989593 9.88456 1.46447 10.1775 1.75736L14.4201 6L10.1775 10.2426C9.88456 10.5355 9.88456 11.0104 10.1775 11.3033C10.4703 11.5962 10.9452 11.5962 11.2381 11.3033L16.0111 6.53033ZM15.4808 5.25L9.03186e-08 5.25L-9.03186e-08 6.75L15.4808 6.75L15.4808 5.25Z" fill="#96FBC4"/>
<path d="M16.0111 6.53033C16.304 6.23744 16.304 5.76256 16.0111 5.46967L11.2381 0.6967C10.9452 0.403807 10.4703 0.403807 10.1775 0.6967C9.88456 0.989593 9.88456 1.46447 10.1775 1.75736L14.4201 6L10.1775 10.2426C9.88456 10.5355 9.88456 11.0104 10.1775 11.3033C10.4703 11.5962 10.9452 11.5962 11.2381 11.3033L16.0111 6.53033ZM15.4808 5.25L9.03186e-08 5.25L-9.03186e-08 6.75L15.4808 6.75L15.4808 5.25Z" fill="#96FBC4"/>
</svg>
